<svg id="Capa_1" data-name="Capa 1" xmlns="http://www.w3.org/2000/svg" viewBox="0 0 29.68 38.82"><defs><style>.cls-1{fill:#fff;}</style></defs><title>mini-logo</title><path class="cls-1" d="M691,379c-3.16-3.25-6.24-6.37-9.28-9.55-.6-.63-1.58-1.84-1.39-2.11a13.22,13.22,0,0,1,2.87-2.76c.17-.13.87.21,1.17.49,4.36,4.27,8.69,8.57,13,12.83.76.73.76,1.28,0,2q-6.45,6.36-12.83,12.8c-.84.85-1.46.86-2.35,0-2.43-2.32-2.46-2.29-.07-4.7l8.57-8.61A1.79,1.79,0,0,0,691,379Z" transform="translate(-668.32 -364.55)"/><path class="cls-1" d="M675.3,388.93c3.16,3.24,6.25,6.37,9.28,9.55.6.63,1.58,1.84,1.4,2.11a13.5,13.5,0,0,1-2.88,2.76c-.16.13-.87-.21-1.17-.5-4.36-4.26-8.68-8.56-13-12.82-.75-.74-.76-1.28,0-2q6.45-6.37,12.83-12.8a1.4,1.4,0,0,1,2.35,0c2.43,2.32,2.47,2.29.07,4.7l-8.57,8.61A2.16,2.16,0,0,0,675.3,388.93Z" transform="translate(-668.32 -364.55)"/></svg>