<?xml version="1.0" encoding="utf-8"?>
<!-- Generator: Adobe Illustrator 24.0.1, SVG Export Plug-In . SVG Version: 6.00 Build 0)  -->
<svg version="1.1" id="Capa_1" xmlns="http://www.w3.org/2000/svg" xmlns:xlink="http://www.w3.org/1999/xlink" x="0px" y="0px"
	 viewBox="0 0 111.3 41.7" style="enable-background:new 0 0 111.3 41.7;" xml:space="preserve">
<style type="text/css">
	.st0{fill:#FFFFFF;enable-background:new    ;}
</style>
<title>Sin tiÌtulo-1</title>
<g>
	<path class="st0" d="M7.3,25.6v7H0.2v-7H7.3z M5.3,22.8H2.1L0.4,8.8V0h6.8v8.8L5.3,22.8z"/>
	<path class="st0" d="M23.8,13.2c-1,0-1.9,0.2-2.6,0.7c-0.7,0.5-1.3,1.1-1.7,1.8c-0.4,0.7-0.8,1.6-0.9,2.5c-0.2,0.9-0.3,1.8-0.3,2.7
		c0,0.9,0.1,1.7,0.3,2.6c0.2,0.9,0.5,1.7,0.9,2.4c0.4,0.7,1,1.3,1.7,1.8c0.7,0.5,1.6,0.7,2.6,0.7c1.6,0,2.7-0.4,3.6-1.3
		c0.8-0.9,1.4-2,1.6-3.5h6.3c-0.4,3.1-1.6,5.5-3.7,7.2c-2,1.6-4.6,2.5-7.7,2.5c-1.8,0-3.4-0.3-4.9-0.9c-1.5-0.6-2.7-1.4-3.8-2.5
		c-1-1.1-1.8-2.3-2.4-3.8c-0.6-1.5-0.9-3.1-0.9-4.9c0-1.8,0.3-3.5,0.8-5.1c0.5-1.6,1.3-2.9,2.4-4.1c1-1.1,2.3-2,3.8-2.7
		c1.5-0.6,3.2-1,5.1-1c1.4,0,2.7,0.2,4,0.5c1.3,0.4,2.4,0.9,3.5,1.7c1,0.7,1.8,1.7,2.5,2.8c0.6,1.1,1,2.4,1.1,3.9h-6.3
		C28.2,14.6,26.6,13.2,23.8,13.2z"/>
	<path class="st0" d="M38.5,16.3c0.1-1.5,0.5-2.8,1.1-3.8c0.7-1,1.5-1.8,2.6-2.4c1-0.6,2.2-1,3.5-1.3c1.3-0.3,2.6-0.4,3.9-0.4
		c1.2,0,2.4,0.1,3.6,0.3c1.2,0.2,2.3,0.5,3.3,1c1,0.5,1.8,1.2,2.5,2c0.6,0.9,1,2,1,3.4v12.3c0,1.1,0.1,2.1,0.2,3.1
		c0.1,1,0.3,1.7,0.6,2.2h-6.6c-0.1-0.4-0.2-0.7-0.3-1.1c-0.1-0.4-0.1-0.8-0.2-1.2c-1,1.1-2.3,1.8-3.7,2.2c-1.4,0.4-2.8,0.6-4.3,0.6
		c-1.1,0-2.2-0.1-3.1-0.4c-1-0.3-1.8-0.7-2.6-1.3c-0.7-0.6-1.3-1.3-1.7-2.2c-0.4-0.9-0.6-1.9-0.6-3.2c0-1.3,0.2-2.4,0.7-3.3
		c0.5-0.9,1.1-1.6,1.8-2.1c0.7-0.5,1.6-0.9,2.6-1.2c1-0.3,1.9-0.5,2.9-0.6c1-0.2,1.9-0.3,2.9-0.4c0.9-0.1,1.8-0.2,2.5-0.4
		c0.7-0.2,1.3-0.4,1.7-0.8c0.4-0.3,0.6-0.9,0.6-1.5c0-0.7-0.1-1.3-0.3-1.7c-0.2-0.4-0.5-0.7-0.9-1c-0.4-0.2-0.8-0.4-1.3-0.5
		c-0.5-0.1-1-0.1-1.6-0.1c-1.3,0-2.3,0.3-3,0.8c-0.7,0.5-1.2,1.5-1.3,2.7H38.5z M53.5,21c-0.3,0.2-0.6,0.4-1,0.6
		c-0.4,0.1-0.9,0.3-1.3,0.3c-0.5,0.1-1,0.2-1.5,0.2c-0.5,0.1-1,0.1-1.6,0.2c-0.5,0.1-1,0.2-1.4,0.4c-0.5,0.2-0.9,0.4-1.2,0.6
		c-0.4,0.3-0.6,0.6-0.8,1c-0.2,0.4-0.3,0.9-0.3,1.5c0,0.6,0.1,1.1,0.3,1.5c0.2,0.4,0.5,0.7,0.9,0.9c0.4,0.2,0.8,0.4,1.3,0.5
		c0.5,0.1,1,0.1,1.5,0.1c1.3,0,2.3-0.2,3-0.6c0.7-0.4,1.2-0.9,1.6-1.5c0.3-0.6,0.5-1.2,0.6-1.8c0.1-0.6,0.1-1.1,0.1-1.5V21z"/>
	<path class="st0" d="M71.6,0v32.6h-6.5V0H71.6z"/>
	<path class="st0" d="M82.9,9v3H83c0.8-1.3,1.8-2.2,3-2.8c1.2-0.6,2.6-0.9,4-0.9c1.9,0,3.5,0.4,4.8,1.1c1.3,0.7,2.4,1.6,3.3,2.8
		c0.9,1.2,1.5,2.5,2,4c0.4,1.5,0.6,3.1,0.6,4.8c0,1.6-0.2,3.1-0.6,4.6c-0.4,1.5-1.1,2.8-1.9,3.9c-0.9,1.1-1.9,2-3.2,2.7
		c-1.3,0.7-2.8,1-4.5,1c-1.5,0-2.8-0.3-4-0.9c-1.2-0.6-2.2-1.5-3-2.6h-0.1v11.2h-6.5V9H82.9z M91.3,27.7c0.7-0.4,1.3-1,1.7-1.7
		c0.4-0.7,0.8-1.5,0.9-2.4c0.2-0.9,0.3-1.8,0.3-2.8c0-0.9-0.1-1.9-0.3-2.8c-0.2-0.9-0.5-1.7-1-2.4c-0.5-0.7-1-1.3-1.8-1.7
		c-0.7-0.4-1.6-0.7-2.6-0.7c-1.1,0-2,0.2-2.7,0.7c-0.7,0.4-1.3,1-1.7,1.7c-0.4,0.7-0.8,1.5-0.9,2.4c-0.2,0.9-0.3,1.9-0.3,2.8
		c0,0.9,0.1,1.9,0.3,2.8c0.2,0.9,0.5,1.7,1,2.4c0.4,0.7,1,1.2,1.8,1.7c0.7,0.4,1.6,0.6,2.6,0.6C89.7,28.3,90.6,28.1,91.3,27.7z"/>
	<path class="st0" d="M104.8,5.3V0h6.5v5.3H104.8z M111.3,9v23.6h-6.5V9H111.3z"/>
</g>
</svg>
