<svg id="Capa_1" data-name="Capa 1" xmlns="http://www.w3.org/2000/svg" viewBox="0 0 200.94 41.71"><defs><style>.cls-1{fill:#fff;}</style></defs><title>Sin título-1</title><path class="cls-1" d="M605,379c-3.16-3.25-6.24-6.37-9.28-9.55-.6-.63-1.58-1.84-1.39-2.11a13.22,13.22,0,0,1,2.87-2.76c.17-.13.87.21,1.17.49,4.36,4.27,8.69,8.57,13,12.83.76.73.76,1.28,0,2q-6.45,6.36-12.83,12.8c-.84.85-1.46.86-2.35,0-2.43-2.32-2.46-2.29-.07-4.7l8.57-8.61A1.79,1.79,0,0,0,605,379Z" transform="translate(-582.32 -362.7)"/><path class="cls-1" d="M589.3,388.93c3.16,3.24,6.25,6.37,9.28,9.55.6.63,1.58,1.84,1.4,2.11a13.5,13.5,0,0,1-2.88,2.76c-.16.13-.87-.21-1.17-.5-4.36-4.26-8.68-8.56-13-12.82-.75-.74-.76-1.28,0-2q6.45-6.37,12.83-12.8a1.4,1.4,0,0,1,2.35,0c2.43,2.32,2.47,2.29.07,4.7l-8.57,8.61A2.16,2.16,0,0,0,589.3,388.93Z" transform="translate(-582.32 -362.7)"/><path class="cls-1" d="M634.05,376.89c2.15-2.58,4.39-3.87,7.52-3.87,2.89,0,5.81,1.72,5.81,6.45v13.11l2.58.22V395H638.78V392.8l1.72-.22V379.9a2.36,2.36,0,0,0-2.58-2.58,7.73,7.73,0,0,0-4.3,1.72v13.54l2.58.22V395h-12V392.8l2.58-.22v-14l-2.15-1.72v-1.72L631.9,373h1.72v3.87Z" transform="translate(-582.32 -362.7)"/><path class="cls-1" d="M650.39,384.2c0-6.19,4.3-11.18,11.18-11.18s11.18,5,11.18,11.18-4.3,11.18-11.18,11.18S650.39,390.39,650.39,384.2Zm7.31,0c0,6.45,1.29,9,3.87,9s3.87-2.58,3.87-9-1.29-9-3.87-9S657.7,377.75,657.7,384.2Z" transform="translate(-582.32 -362.7)"/><path class="cls-1" d="M683.5,388.93c0,2.58.86,3.44,2.58,3.44a14.34,14.34,0,0,0,2.58-.22v1.72a17.91,17.91,0,0,1-6.88,1.51c-3,0-5.16-1.51-5.16-5.16V376H674v-2.37l2.58-.21,3.44-5.16h3.44v5.16h5.16V376H683.5Z" transform="translate(-582.32 -362.7)"/><path class="cls-1" d="M696.31,382.86c0,5.64,3.31,7.57,6.54,7.57,3,0,4.73-1.29,5.59-2.79h1.29c-.86,3.87-3.87,7.74-9.25,7.74-7.09,0-11-5.16-11-11,0-7.31,5.59-11.39,11.39-11.39,5.38,0,8.39,2.58,8.39,5.8a2.84,2.84,0,1,1-4.09-2.58v-.43a7.81,7.81,0,0,0-3.22-.64C698.55,375.17,696.31,377.88,696.31,382.86Z" transform="translate(-582.32 -362.7)"/><path class="cls-1" d="M723.06,393h-.43c-1.94,1.51-3.44,2.37-6,2.37-3.23,0-5.16-2.15-5.16-4.73,0-3,3.1-4.9,5.59-5.81l6-2.15v-3.22c0-2.58-1.94-3.87-4.3-3.87a14.6,14.6,0,0,0-2.37.21v.43a2.83,2.83,0,1,1-4.08,2.58c0-3.22,4.77-5.8,9.46-5.8,3.78,0,8.17,1.29,8.17,6.45v12.47l2.58.43v2.15l-7.74.86h-1.72Zm0-8.6-1.76.73a4.21,4.21,0,0,0-3,4,2.46,2.46,0,0,0,2.58,2.58,5.31,5.31,0,0,0,2.15-.43Z" transform="translate(-582.32 -362.7)"/><path class="cls-1" d="M742.84,392.58l2.58.22V395h-12V392.8l2.58-.22V369.15l-2.15-1.72v-1.72l7.31-2.15h1.72Z" transform="translate(-582.32 -362.7)"/><path class="cls-1" d="M757.46,402.26v2.15h-12v-2.15L748,402V378.61l-2.15-1.72v-1.72l7.31-2.15h1.72v2.15h.43A7,7,0,0,1,760.9,373c5.59,0,9,4.73,9,11.18s-3.87,11.18-9.46,11.18a7.46,7.46,0,0,1-5.16-1.72h-.43V402Zm-2.58-10.75a6.85,6.85,0,0,0,3,.64c2.58,0,4.73-2.36,4.73-7.95s-2.15-8-4.73-8a5.1,5.1,0,0,0-3,1.08Z" transform="translate(-582.32 -362.7)"/><path class="cls-1" d="M780.68,392.58l2.58.22V395h-12V392.8l2.58-.22v-14l-2.15-1.72v-1.72L779,373h1.72Zm-3.44-29.88a3.87,3.87,0,1,1-3.87,3.87A3.85,3.85,0,0,1,777.24,362.7Z" transform="translate(-582.32 -362.7)"/></svg>