<?xml version="1.0" encoding="utf-8"?>
<!-- Generator: Adobe Illustrator 24.0.1, SVG Export Plug-In . SVG Version: 6.00 Build 0)  -->
<svg version="1.1" id="Capa_1" xmlns="http://www.w3.org/2000/svg" xmlns:xlink="http://www.w3.org/1999/xlink" x="0px" y="0px"
	 viewBox="0 0 24 24" style="enable-background:new 0 0 24 24;" xml:space="preserve">
<style type="text/css">
	.st0{fill:none;}
</style>
<title>fingerprints</title>
<path d="M17.8,4.5c-0.1,0-0.2,0-0.2-0.1C15.9,3.5,13.9,3,12,3c-1.9,0-3.9,0.5-5.6,1.4C6.2,4.5,5.9,4.3,5.8,4.1
	C5.8,3.9,5.8,3.7,6,3.5c3.7-2,8.2-2,12,0c0.2,0.1,0.3,0.5,0.2,0.7C18.1,4.4,17.9,4.5,17.8,4.5L17.8,4.5z M3.5,9.7
	c-0.1,0-0.2,0-0.3-0.1C3,9.5,2.9,9.2,3.1,8.9c0,0,0,0,0,0c1-1.4,2.3-2.5,3.8-3.3c3.2-1.6,7.1-1.6,10.3,0c1.5,0.8,2.8,1.9,3.7,3.2
	c0.2,0.2,0.1,0.5-0.1,0.7c-0.2,0.2-0.5,0.1-0.7-0.1l0,0c-0.9-1.2-2-2.2-3.4-2.9c-3-1.5-6.4-1.5-9.4,0c-1.4,0.7-2.5,1.7-3.4,3
	C3.8,9.7,3.7,9.7,3.5,9.7z M9.8,21.8c-0.1,0-0.3-0.1-0.4-0.1c-0.8-0.8-1.5-1.7-2-2.6c-0.7-1.3-1-2.8-1-4.3c0.1-3,2.6-5.4,5.6-5.4
	c3-0.1,5.6,2.3,5.7,5.4c0,0.3-0.2,0.5-0.5,0.5s-0.5-0.2-0.5-0.5c-0.1-2.5-2.2-4.5-4.7-4.4c-2.5-0.1-4.6,1.9-4.7,4.4
	c0,1.3,0.3,2.7,0.9,3.9c0.5,0.9,1.1,1.7,1.9,2.4c0.2,0.2,0.2,0.5,0,0.7C10,21.7,9.9,21.8,9.8,21.8z M16.9,19.9
	c-1.1,0-2.2-0.3-3.1-0.9c-1.5-1-2.4-2.6-2.4-4.4c0-0.3,0.2-0.5,0.5-0.5s0.5,0.2,0.5,0.5c0,1.4,0.7,2.8,1.9,3.6
	c0.8,0.5,1.6,0.7,2.5,0.7c0.3,0,0.7,0,1-0.1c0.3,0,0.5,0.1,0.6,0.4c0,0.3-0.1,0.5-0.4,0.6C17.7,19.9,17.3,19.9,16.9,19.9z M14.9,22
	h-0.1c-1.4-0.3-2.7-1.1-3.7-2.1c-1.4-1.4-2.2-3.3-2.2-5.2c0-1.7,1.4-3,3-3c0,0,0,0,0.1,0c1.7,0,3,1.3,3.1,2.9c0,0,0,0,0,0
	c0.1,1.1,1.1,2,2.3,1.9c1-0.1,1.8-0.9,1.9-1.9c-0.1-3.9-3.4-6.9-7.2-6.8c-2.8,0-5.4,1.5-6.6,4c-0.4,0.9-0.6,1.8-0.6,2.8
	c0,1.2,0.2,2.5,0.7,3.6c0.1,0.3,0,0.5-0.3,0.6c0,0,0,0,0,0c-0.3,0.1-0.5,0-0.6-0.3c-0.5-1.3-0.7-2.6-0.7-4c0-1.1,0.2-2.2,0.7-3.2
	C5.9,8.5,8.8,6.8,12,6.8c4.4-0.1,8.1,3.4,8.2,7.8c0,1.7-1.4,3.1-3.1,3.1c-1.7,0-3.1-1.4-3.1-3.1c0-1.1-1-2-2.1-1.9c0,0,0,0,0,0
	c-1.1,0-2,0.8-2.1,1.9c0,0,0,0,0,0c0,1.7,0.7,3.3,1.9,4.5c0.9,0.9,2,1.5,3.2,1.8c0.3,0.1,0.4,0.3,0.4,0.6C15.3,21.8,15.1,22,14.9,22
	L14.9,22z"/>
<path class="st0" d="M0,0h24v24H0V0z"/>
</svg>
