<?xml version="1.0" encoding="utf-8"?>
<!-- Generator: Adobe Illustrator 24.0.1, SVG Export Plug-In . SVG Version: 6.00 Build 0)  -->
<svg version="1.1" id="Capa_1" xmlns="http://www.w3.org/2000/svg" xmlns:xlink="http://www.w3.org/1999/xlink" x="0px" y="0px"
	 viewBox="0 0 24 24" style="enable-background:new 0 0 24 24;" xml:space="preserve">
<style type="text/css">
	.st0{fill:none;}
</style>
<title>team</title>
<path class="st0" d="M0,0h24v24H0V0z"/>
<path d="M8,10H5V7H3v3H0v2h3v3h2v-3h3V10z M18,11c1.7,0,3-1.3,3-3s-1.3-3-3-3c-0.3,0-0.6,0-0.9,0.1C17.7,6,18,7,18,8
	c0,1-0.3,2-0.9,2.9C17.4,11,17.7,11,18,11z M13,11c1.7,0,3-1.3,3-3s-1.3-3-3-3s-3,1.3-3,3S11.3,11,13,11z M19.6,13.2
	c0.9,0.7,1.4,1.7,1.4,2.8v2h3v-2C24,14.5,21.6,13.5,19.6,13.2z M13,13c-2,0-6,1-6,3v2h12v-2C19,14,15,13,13,13z"/>
</svg>
