<?xml version="1.0" encoding="utf-8"?>
<!-- Generator: Adobe Illustrator 24.0.1, SVG Export Plug-In . SVG Version: 6.00 Build 0)  -->
<svg version="1.1" id="Capa_1" xmlns="http://www.w3.org/2000/svg" xmlns:xlink="http://www.w3.org/1999/xlink" x="0px" y="0px"
	 viewBox="0 0 24 24" style="enable-background:new 0 0 24 24;" xml:space="preserve">
<title>team</title>
<path d="M17.8,15.5l1.8,1.8c-1.1,2-3.9,3.6-6.5,3.9V10.8h3.5V8.5h-3.5V7.1c1.4-0.5,2.3-1.8,2.3-3.3c0-1.9-1.6-3.5-3.5-3.5
	S8.5,1.9,8.5,3.8c0,1.5,1,2.8,2.3,3.3v1.4H7.3v2.3h3.5v10.4c-2.6-0.4-5.4-2-6.5-3.9l1.8-1.8L1.5,12v3.5c0,4.5,5.7,8.2,10.5,8.2
	s10.5-3.6,10.5-8.2V12L17.8,15.5z M12,2.7c0.6,0,1.2,0.5,1.2,1.2S12.6,5,12,5s-1.2-0.5-1.2-1.2S11.4,2.7,12,2.7z"/>
</svg>
