<svg id="Capa_1" data-name="Capa 1" xmlns="http://www.w3.org/2000/svg" viewBox="0 0 24 24"><defs><style>.cls-1{fill:#ff1744;}.cls-2{fill:none;}</style></defs><title>fingerprints</title><path class="cls-1" d="M17.81,4.47a.46.46,0,0,1-.23-.06A11.44,11.44,0,0,0,12,3,11.44,11.44,0,0,0,6.44,4.41.5.5,0,0,1,6,3.53,12.72,12.72,0,0,1,18,3.52a.51.51,0,0,1-.23.95ZM3.5,9.72a.52.52,0,0,1-.29-.09.5.5,0,0,1-.12-.7A10.34,10.34,0,0,1,6.84,5.66a11.54,11.54,0,0,1,10.31,0A10.38,10.38,0,0,1,20.9,8.9a.5.5,0,0,1-.82.58,9.39,9.39,0,0,0-3.39-2.94,10.54,10.54,0,0,0-9.4,0,9.49,9.49,0,0,0-3.4,3A.44.44,0,0,1,3.5,9.72ZM9.75,21.79a.47.47,0,0,1-.35-.15,10.11,10.11,0,0,1-2-2.64,8.88,8.88,0,0,1-1-4.34A5.54,5.54,0,0,1,12,9.27a5.54,5.54,0,0,1,5.66,5.39.5.5,0,0,1-1,0A4.54,4.54,0,0,0,12,10.27a4.54,4.54,0,0,0-4.66,4.39,7.83,7.83,0,0,0,.93,3.85,9.47,9.47,0,0,0,1.85,2.42.51.51,0,0,1,0,.71A.55.55,0,0,1,9.75,21.79Zm7.17-1.85a5.39,5.39,0,0,1-3.1-.89,5.32,5.32,0,0,1-2.38-4.39.5.5,0,0,1,1,0,4.3,4.3,0,0,0,1.94,3.56,4.38,4.38,0,0,0,2.54.71,6.61,6.61,0,0,0,1-.1.5.5,0,1,1,.17,1A6.83,6.83,0,0,1,16.92,19.94Zm-2,2.06-.13,0a7.8,7.8,0,0,1-3.72-2.1,7.3,7.3,0,0,1-2.17-5.22A3,3,0,0,1,12,11.72a3,3,0,0,1,3.08,2.94,2.09,2.09,0,0,0,4.16,0A7.05,7.05,0,0,0,12,7.83a7.3,7.3,0,0,0-6.61,4,6.43,6.43,0,0,0-.59,2.8,9.94,9.94,0,0,0,.67,3.61.49.49,0,0,1-.29.64.5.5,0,0,1-.64-.29,11.14,11.14,0,0,1-.73-4,7.51,7.51,0,0,1,.68-3.24A8.3,8.3,0,0,1,12,6.82a8.06,8.06,0,0,1,8.25,7.83,3.08,3.08,0,0,1-6.16,0A2,2,0,0,0,12,12.71a2,2,0,0,0-2.08,1.94,6.3,6.3,0,0,0,1.87,4.51A6.8,6.8,0,0,0,15,21a.5.5,0,0,1,.35.61A.49.49,0,0,1,14.91,22Z"/><path class="cls-2" d="M0,0H24V24H0Z"/></svg>