<svg id="Capa_1" data-name="Capa 1" xmlns="http://www.w3.org/2000/svg" viewBox="0 0 24 24"><defs><style>.cls-1{fill:none;}.cls-2{fill:#ff1744;}</style></defs><title>team</title><path class="cls-1" d="M0,0H24V24H0Z"/><path class="cls-2" d="M8,10H5V7H3v3H0v2H3v3H5V12H8Zm10,1a3,3,0,1,0-.91-5.86A4.93,4.93,0,0,1,18,8a5,5,0,0,1-.9,2.86A3,3,0,0,0,18,11Zm-5,0a3,3,0,1,0-3-3A3,3,0,0,0,13,11Zm6.62,2.16A3.7,3.7,0,0,1,21,16v2h3V16C24,14.46,21.63,13.51,19.62,13.16ZM13,13c-2,0-6,1-6,3v2H19V16C19,14,15,13,13,13Z"/></svg>